# xmcd CD database file
#
# Track frame offsets:
#	150
#	17120
#	33524
#	47573
#	65835
#	79686
#	99612
#	118810
#	134566
#	153145
#	170202
#	184150
#	201349
#	214556
#	228918
#	241667
#	252822
#	269630
#	280495
#	287849
#	301896
#	312432
#
# Disc length: 4360 seconds
#
# Revision: 0
# Processed by: cddbd v1.5.2PL0 Copyright (c) Steve Scherf et al.
# Submitted via: cdripper 1,0,33,916
#
DISCID=48110616
DTITLE=Karel Gott - 29 Muzika
DYEAR=2007
DGENRE=Komplet
TTITLE0=Zacínám zít
TTITLE1=Miriam
TTITLE2=Bláhové prání
TTITLE3=Muzika
TTITLE4=Pábitelé
TTITLE5=Jsem chlap, co mlcí
TTITLE6=Podrázkám dvou znicených bot
TTITLE7=Vrásky z lásky
TTITLE8=Velký rvác
TTITLE9=Z mé cigarety stoupá dým
TTITLE10=Hlas v telefonu
TTITLE11=To byl vám den
TTITLE12=Santa Lucia
TTITLE13=Jsem na svete rád
TTITLE14=Víc
TTITLE15=Parlami D´Amore Mariú
TTITLE16=Angelina
TTITLE17=Oci snehem zaváté
TTITLE18=Bum, bum, bum
TTITLE19=Narodil se máj
TTITLE20=Nejsem, nejsem rád
TTITLE21=Maria
EXTD=YEAR: 2007
EXTT0=
EXTT1=
EXTT2=
EXTT3=
EXTT4=
EXTT5=
EXTT6=
EXTT7=
EXTT8=
EXTT9=
EXTT10=
EXTT11=
EXTT12=
EXTT13=
EXTT14=
EXTT15=
EXTT16=
EXTT17=
EXTT18=
EXTT19=
EXTT20=
EXTT21=
PLAYORDER=
